<mxfile host="app.diagrams.net" modified="2023-05-29T16:12:36.351Z" agent="Mozilla/5.0 (Windows NT 10.0; Win64; x64) AppleWebKit/537.36 (KHTML, like Gecko) Chrome/113.0.0.0 Safari/537.36 Edg/113.0.1774.57" etag="FMnl8MPRnVQoE5qa3JnQ" version="21.3.5" type="device">
  <diagram name="Page-1" id="IgcC-X4iaZxsO5MIDhcI">
    <mxGraphModel dx="1544" dy="696" grid="0" gridSize="10" guides="1" tooltips="1" connect="1" arrows="1" fold="1" page="0" pageScale="1" pageWidth="827" pageHeight="1169" math="0" shadow="0">
      <root>
        <mxCell id="0" />
        <mxCell id="1" parent="0" />
        <mxCell id="dIFlpC5XtX7Rx2cz8LBu-10" value="" style="rounded=0;whiteSpace=wrap;html=1;" vertex="1" parent="1">
          <mxGeometry x="80" y="60" width="720" height="620" as="geometry" />
        </mxCell>
        <mxCell id="dIFlpC5XtX7Rx2cz8LBu-32" style="edgeStyle=orthogonalEdgeStyle;rounded=0;orthogonalLoop=1;jettySize=auto;html=1;entryX=0.75;entryY=1;entryDx=0;entryDy=0;endArrow=none;endFill=0;strokeWidth=4;" edge="1" parent="1" source="dIFlpC5XtX7Rx2cz8LBu-1" target="dIFlpC5XtX7Rx2cz8LBu-4">
          <mxGeometry relative="1" as="geometry" />
        </mxCell>
        <mxCell id="dIFlpC5XtX7Rx2cz8LBu-1" value="Counter" style="rounded=0;whiteSpace=wrap;html=1;" vertex="1" parent="1">
          <mxGeometry x="140" y="240" width="120" height="120" as="geometry" />
        </mxCell>
        <mxCell id="dIFlpC5XtX7Rx2cz8LBu-31" style="edgeStyle=orthogonalEdgeStyle;rounded=0;orthogonalLoop=1;jettySize=auto;html=1;entryX=0.25;entryY=1;entryDx=0;entryDy=0;endArrow=none;endFill=0;strokeWidth=4;" edge="1" parent="1" source="dIFlpC5XtX7Rx2cz8LBu-2" target="dIFlpC5XtX7Rx2cz8LBu-4">
          <mxGeometry relative="1" as="geometry" />
        </mxCell>
        <mxCell id="dIFlpC5XtX7Rx2cz8LBu-2" value="Counter" style="rounded=0;whiteSpace=wrap;html=1;" vertex="1" parent="1">
          <mxGeometry x="140" y="90" width="120" height="120" as="geometry" />
        </mxCell>
        <mxCell id="dIFlpC5XtX7Rx2cz8LBu-34" style="edgeStyle=orthogonalEdgeStyle;rounded=0;orthogonalLoop=1;jettySize=auto;html=1;endArrow=none;endFill=0;" edge="1" parent="1" source="dIFlpC5XtX7Rx2cz8LBu-4">
          <mxGeometry relative="1" as="geometry">
            <mxPoint x="820" y="220" as="targetPoint" />
          </mxGeometry>
        </mxCell>
        <mxCell id="dIFlpC5XtX7Rx2cz8LBu-52" style="edgeStyle=orthogonalEdgeStyle;rounded=0;orthogonalLoop=1;jettySize=auto;html=1;exitX=0;exitY=0.5;exitDx=0;exitDy=0;endArrow=none;endFill=0;" edge="1" parent="1" source="dIFlpC5XtX7Rx2cz8LBu-4">
          <mxGeometry relative="1" as="geometry">
            <mxPoint x="40" y="70" as="targetPoint" />
            <Array as="points">
              <mxPoint x="414" y="70" />
            </Array>
          </mxGeometry>
        </mxCell>
        <mxCell id="dIFlpC5XtX7Rx2cz8LBu-4" value="Mux" style="shape=trapezoid;perimeter=trapezoidPerimeter;whiteSpace=wrap;html=1;fixedSize=1;direction=south;" vertex="1" parent="1">
          <mxGeometry x="384" y="160" width="60" height="120" as="geometry" />
        </mxCell>
        <mxCell id="dIFlpC5XtX7Rx2cz8LBu-24" style="edgeStyle=orthogonalEdgeStyle;rounded=0;orthogonalLoop=1;jettySize=auto;html=1;entryX=0;entryY=0.25;entryDx=0;entryDy=0;entryPerimeter=0;endArrow=none;endFill=0;" edge="1" parent="1" source="dIFlpC5XtX7Rx2cz8LBu-5" target="dIFlpC5XtX7Rx2cz8LBu-11">
          <mxGeometry relative="1" as="geometry" />
        </mxCell>
        <mxCell id="dIFlpC5XtX7Rx2cz8LBu-5" value="" style="shape=xor;whiteSpace=wrap;html=1;" vertex="1" parent="1">
          <mxGeometry x="480" y="360" width="60" height="40" as="geometry" />
        </mxCell>
        <mxCell id="dIFlpC5XtX7Rx2cz8LBu-23" style="edgeStyle=orthogonalEdgeStyle;rounded=0;orthogonalLoop=1;jettySize=auto;html=1;entryX=0;entryY=0.5;entryDx=0;entryDy=0;entryPerimeter=0;endArrow=none;endFill=0;" edge="1" parent="1" source="dIFlpC5XtX7Rx2cz8LBu-6" target="dIFlpC5XtX7Rx2cz8LBu-11">
          <mxGeometry relative="1" as="geometry" />
        </mxCell>
        <mxCell id="dIFlpC5XtX7Rx2cz8LBu-6" value="" style="shape=xor;whiteSpace=wrap;html=1;" vertex="1" parent="1">
          <mxGeometry x="480" y="440" width="60" height="40" as="geometry" />
        </mxCell>
        <mxCell id="dIFlpC5XtX7Rx2cz8LBu-22" style="edgeStyle=orthogonalEdgeStyle;rounded=0;orthogonalLoop=1;jettySize=auto;html=1;entryX=0;entryY=0.75;entryDx=0;entryDy=0;entryPerimeter=0;endArrow=none;endFill=0;" edge="1" parent="1" source="dIFlpC5XtX7Rx2cz8LBu-7" target="dIFlpC5XtX7Rx2cz8LBu-11">
          <mxGeometry relative="1" as="geometry" />
        </mxCell>
        <mxCell id="dIFlpC5XtX7Rx2cz8LBu-7" value="" style="shape=xor;whiteSpace=wrap;html=1;" vertex="1" parent="1">
          <mxGeometry x="480" y="520" width="60" height="40" as="geometry" />
        </mxCell>
        <mxCell id="dIFlpC5XtX7Rx2cz8LBu-9" value="" style="shape=xor;whiteSpace=wrap;html=1;" vertex="1" parent="1">
          <mxGeometry x="400" y="600" width="60" height="40" as="geometry" />
        </mxCell>
        <mxCell id="dIFlpC5XtX7Rx2cz8LBu-18" style="edgeStyle=orthogonalEdgeStyle;rounded=0;orthogonalLoop=1;jettySize=auto;html=1;entryX=0;entryY=0.25;entryDx=0;entryDy=0;entryPerimeter=0;endArrow=none;endFill=0;" edge="1" parent="1" source="dIFlpC5XtX7Rx2cz8LBu-11" target="dIFlpC5XtX7Rx2cz8LBu-13">
          <mxGeometry relative="1" as="geometry" />
        </mxCell>
        <mxCell id="dIFlpC5XtX7Rx2cz8LBu-11" value="" style="shape=or;whiteSpace=wrap;html=1;" vertex="1" parent="1">
          <mxGeometry x="580" y="435" width="60" height="50" as="geometry" />
        </mxCell>
        <mxCell id="dIFlpC5XtX7Rx2cz8LBu-19" style="edgeStyle=orthogonalEdgeStyle;rounded=0;orthogonalLoop=1;jettySize=auto;html=1;entryX=1;entryY=0.5;entryDx=0;entryDy=0;entryPerimeter=0;exitX=0;exitY=0.25;exitDx=0;exitDy=0;exitPerimeter=0;endArrow=none;endFill=0;" edge="1" parent="1" source="dIFlpC5XtX7Rx2cz8LBu-12" target="dIFlpC5XtX7Rx2cz8LBu-11">
          <mxGeometry relative="1" as="geometry" />
        </mxCell>
        <mxCell id="dIFlpC5XtX7Rx2cz8LBu-20" style="edgeStyle=orthogonalEdgeStyle;rounded=0;orthogonalLoop=1;jettySize=auto;html=1;endArrow=none;endFill=0;" edge="1" parent="1" source="dIFlpC5XtX7Rx2cz8LBu-12">
          <mxGeometry relative="1" as="geometry">
            <mxPoint x="820" y="575" as="targetPoint" />
          </mxGeometry>
        </mxCell>
        <mxCell id="dIFlpC5XtX7Rx2cz8LBu-12" value="" style="shape=or;whiteSpace=wrap;html=1;" vertex="1" parent="1">
          <mxGeometry x="690" y="550" width="60" height="50" as="geometry" />
        </mxCell>
        <mxCell id="dIFlpC5XtX7Rx2cz8LBu-21" style="edgeStyle=orthogonalEdgeStyle;rounded=0;orthogonalLoop=1;jettySize=auto;html=1;endArrow=none;endFill=0;" edge="1" parent="1" source="dIFlpC5XtX7Rx2cz8LBu-13">
          <mxGeometry relative="1" as="geometry">
            <mxPoint x="820" y="645" as="targetPoint" />
          </mxGeometry>
        </mxCell>
        <mxCell id="dIFlpC5XtX7Rx2cz8LBu-13" value="" style="shape=or;whiteSpace=wrap;html=1;" vertex="1" parent="1">
          <mxGeometry x="690" y="620" width="60" height="50" as="geometry" />
        </mxCell>
        <mxCell id="dIFlpC5XtX7Rx2cz8LBu-14" value="" style="endArrow=none;html=1;rounded=0;entryX=0.912;entryY=0.237;entryDx=0;entryDy=0;entryPerimeter=0;" edge="1" parent="1" target="dIFlpC5XtX7Rx2cz8LBu-26">
          <mxGeometry width="50" height="50" relative="1" as="geometry">
            <mxPoint x="350" y="490" as="sourcePoint" />
            <mxPoint x="190" y="620" as="targetPoint" />
            <Array as="points">
              <mxPoint x="350" y="609" />
            </Array>
          </mxGeometry>
        </mxCell>
        <mxCell id="dIFlpC5XtX7Rx2cz8LBu-16" value="" style="endArrow=none;html=1;rounded=0;exitX=0;exitY=0.75;exitDx=0;exitDy=0;exitPerimeter=0;entryX=1;entryY=0.5;entryDx=0;entryDy=0;entryPerimeter=0;" edge="1" parent="1" source="dIFlpC5XtX7Rx2cz8LBu-12" target="dIFlpC5XtX7Rx2cz8LBu-9">
          <mxGeometry width="50" height="50" relative="1" as="geometry">
            <mxPoint x="220" y="420" as="sourcePoint" />
            <mxPoint x="270" y="370" as="targetPoint" />
            <Array as="points">
              <mxPoint x="500" y="588" />
              <mxPoint x="500" y="620" />
            </Array>
          </mxGeometry>
        </mxCell>
        <mxCell id="dIFlpC5XtX7Rx2cz8LBu-17" value="" style="endArrow=none;html=1;rounded=0;entryX=0;entryY=0.75;entryDx=0;entryDy=0;entryPerimeter=0;" edge="1" parent="1" target="dIFlpC5XtX7Rx2cz8LBu-13">
          <mxGeometry width="50" height="50" relative="1" as="geometry">
            <mxPoint x="460" y="620" as="sourcePoint" />
            <mxPoint x="690" y="633" as="targetPoint" />
            <Array as="points">
              <mxPoint x="500" y="620" />
              <mxPoint x="500" y="630" />
              <mxPoint x="500" y="660" />
            </Array>
          </mxGeometry>
        </mxCell>
        <mxCell id="dIFlpC5XtX7Rx2cz8LBu-26" value="" style="shape=requiredInterface;html=1;verticalLabelPosition=bottom;sketch=0;" vertex="1" parent="1">
          <mxGeometry x="390" y="600" width="10" height="40" as="geometry" />
        </mxCell>
        <mxCell id="dIFlpC5XtX7Rx2cz8LBu-28" value="" style="shape=requiredInterface;html=1;verticalLabelPosition=bottom;sketch=0;" vertex="1" parent="1">
          <mxGeometry x="470" y="520" width="10" height="40" as="geometry" />
        </mxCell>
        <mxCell id="dIFlpC5XtX7Rx2cz8LBu-29" value="" style="shape=requiredInterface;html=1;verticalLabelPosition=bottom;sketch=0;" vertex="1" parent="1">
          <mxGeometry x="470" y="440" width="10" height="40" as="geometry" />
        </mxCell>
        <mxCell id="dIFlpC5XtX7Rx2cz8LBu-30" value="" style="shape=requiredInterface;html=1;verticalLabelPosition=bottom;sketch=0;" vertex="1" parent="1">
          <mxGeometry x="470" y="360" width="10" height="40" as="geometry" />
        </mxCell>
        <mxCell id="dIFlpC5XtX7Rx2cz8LBu-35" value="" style="endArrow=none;html=1;rounded=0;entryX=0;entryY=0.25;entryDx=0;entryDy=0;" edge="1" parent="1" source="dIFlpC5XtX7Rx2cz8LBu-54" target="dIFlpC5XtX7Rx2cz8LBu-2">
          <mxGeometry width="50" height="50" relative="1" as="geometry">
            <mxPoint x="40" y="109" as="sourcePoint" />
            <mxPoint x="330" y="400" as="targetPoint" />
            <Array as="points" />
          </mxGeometry>
        </mxCell>
        <mxCell id="dIFlpC5XtX7Rx2cz8LBu-36" value="" style="endArrow=none;html=1;rounded=0;entryX=0;entryY=0.25;entryDx=0;entryDy=0;exitX=1;exitY=0.5;exitDx=0;exitDy=0;" edge="1" parent="1" source="dIFlpC5XtX7Rx2cz8LBu-55">
          <mxGeometry width="50" height="50" relative="1" as="geometry">
            <mxPoint x="40" y="149.23" as="sourcePoint" />
            <mxPoint x="140" y="149.23" as="targetPoint" />
          </mxGeometry>
        </mxCell>
        <mxCell id="dIFlpC5XtX7Rx2cz8LBu-37" value="" style="endArrow=none;html=1;rounded=0;entryX=0;entryY=0.25;entryDx=0;entryDy=0;exitX=1;exitY=0.5;exitDx=0;exitDy=0;" edge="1" parent="1" source="dIFlpC5XtX7Rx2cz8LBu-56">
          <mxGeometry width="50" height="50" relative="1" as="geometry">
            <mxPoint x="40" y="260" as="sourcePoint" />
            <mxPoint x="140" y="260" as="targetPoint" />
          </mxGeometry>
        </mxCell>
        <mxCell id="dIFlpC5XtX7Rx2cz8LBu-38" value="" style="endArrow=none;html=1;rounded=0;entryX=0;entryY=0.75;entryDx=0;entryDy=0;" edge="1" parent="1" target="dIFlpC5XtX7Rx2cz8LBu-2">
          <mxGeometry width="50" height="50" relative="1" as="geometry">
            <mxPoint x="100" y="260" as="sourcePoint" />
            <mxPoint x="140" y="260" as="targetPoint" />
            <Array as="points">
              <mxPoint x="100" y="180" />
            </Array>
          </mxGeometry>
        </mxCell>
        <mxCell id="dIFlpC5XtX7Rx2cz8LBu-39" value="" style="endArrow=none;html=1;rounded=0;entryX=0;entryY=0.25;entryDx=0;entryDy=0;" edge="1" parent="1">
          <mxGeometry width="50" height="50" relative="1" as="geometry">
            <mxPoint x="110" y="150" as="sourcePoint" />
            <mxPoint x="140" y="299.23" as="targetPoint" />
            <Array as="points">
              <mxPoint x="110" y="299" />
            </Array>
          </mxGeometry>
        </mxCell>
        <mxCell id="dIFlpC5XtX7Rx2cz8LBu-40" value="" style="endArrow=none;html=1;rounded=0;entryX=0;entryY=0.25;entryDx=0;entryDy=0;exitX=1;exitY=0.5;exitDx=0;exitDy=0;" edge="1" parent="1" source="dIFlpC5XtX7Rx2cz8LBu-57">
          <mxGeometry width="50" height="50" relative="1" as="geometry">
            <mxPoint x="40" y="340" as="sourcePoint" />
            <mxPoint x="140" y="340" as="targetPoint" />
          </mxGeometry>
        </mxCell>
        <mxCell id="dIFlpC5XtX7Rx2cz8LBu-41" value="" style="endArrow=none;html=1;rounded=0;exitX=0.747;exitY=0.143;exitDx=0;exitDy=0;exitPerimeter=0;" edge="1" parent="1" source="dIFlpC5XtX7Rx2cz8LBu-30">
          <mxGeometry width="50" height="50" relative="1" as="geometry">
            <mxPoint x="480" y="367" as="sourcePoint" />
            <mxPoint x="350" y="190" as="targetPoint" />
            <Array as="points">
              <mxPoint x="350" y="367" />
            </Array>
          </mxGeometry>
        </mxCell>
        <mxCell id="dIFlpC5XtX7Rx2cz8LBu-42" value="" style="endArrow=none;html=1;rounded=0;exitX=0.819;exitY=0.148;exitDx=0;exitDy=0;exitPerimeter=0;" edge="1" parent="1" source="dIFlpC5XtX7Rx2cz8LBu-29">
          <mxGeometry width="50" height="50" relative="1" as="geometry">
            <mxPoint x="370" y="420" as="sourcePoint" />
            <mxPoint x="350" y="350" as="targetPoint" />
            <Array as="points">
              <mxPoint x="350" y="446" />
            </Array>
          </mxGeometry>
        </mxCell>
        <mxCell id="dIFlpC5XtX7Rx2cz8LBu-43" value="" style="endArrow=none;html=1;rounded=0;exitX=0.819;exitY=0.148;exitDx=0;exitDy=0;exitPerimeter=0;" edge="1" parent="1">
          <mxGeometry width="50" height="50" relative="1" as="geometry">
            <mxPoint x="478" y="531" as="sourcePoint" />
            <mxPoint x="350" y="435" as="targetPoint" />
            <Array as="points">
              <mxPoint x="350" y="531" />
            </Array>
          </mxGeometry>
        </mxCell>
        <mxCell id="dIFlpC5XtX7Rx2cz8LBu-44" value="" style="ellipse;whiteSpace=wrap;html=1;aspect=fixed;" vertex="1" parent="1">
          <mxGeometry x="540" y="374" width="10" height="10" as="geometry" />
        </mxCell>
        <mxCell id="dIFlpC5XtX7Rx2cz8LBu-46" value="" style="ellipse;whiteSpace=wrap;html=1;aspect=fixed;" vertex="1" parent="1">
          <mxGeometry x="540" y="454" width="10" height="10" as="geometry" />
        </mxCell>
        <mxCell id="dIFlpC5XtX7Rx2cz8LBu-47" value="" style="ellipse;whiteSpace=wrap;html=1;aspect=fixed;" vertex="1" parent="1">
          <mxGeometry x="540" y="534" width="10" height="10" as="geometry" />
        </mxCell>
        <mxCell id="dIFlpC5XtX7Rx2cz8LBu-48" value="" style="ellipse;whiteSpace=wrap;html=1;aspect=fixed;" vertex="1" parent="1">
          <mxGeometry x="680" y="582" width="10" height="10" as="geometry" />
        </mxCell>
        <mxCell id="dIFlpC5XtX7Rx2cz8LBu-49" value="" style="endArrow=none;html=1;rounded=0;exitX=0.874;exitY=0.854;exitDx=0;exitDy=0;exitPerimeter=0;" edge="1" parent="1" source="dIFlpC5XtX7Rx2cz8LBu-30">
          <mxGeometry width="50" height="50" relative="1" as="geometry">
            <mxPoint x="370" y="420" as="sourcePoint" />
            <mxPoint x="310" y="300" as="targetPoint" />
            <Array as="points">
              <mxPoint x="310" y="394" />
            </Array>
          </mxGeometry>
        </mxCell>
        <mxCell id="dIFlpC5XtX7Rx2cz8LBu-50" value="" style="endArrow=none;html=1;rounded=0;exitX=0.874;exitY=0.854;exitDx=0;exitDy=0;exitPerimeter=0;" edge="1" parent="1">
          <mxGeometry width="50" height="50" relative="1" as="geometry">
            <mxPoint x="479" y="468" as="sourcePoint" />
            <mxPoint x="310" y="374" as="targetPoint" />
            <Array as="points">
              <mxPoint x="310" y="468" />
            </Array>
          </mxGeometry>
        </mxCell>
        <mxCell id="dIFlpC5XtX7Rx2cz8LBu-51" value="" style="endArrow=none;html=1;rounded=0;exitX=0.874;exitY=0.854;exitDx=0;exitDy=0;exitPerimeter=0;" edge="1" parent="1">
          <mxGeometry width="50" height="50" relative="1" as="geometry">
            <mxPoint x="479" y="548" as="sourcePoint" />
            <mxPoint x="310" y="454" as="targetPoint" />
            <Array as="points">
              <mxPoint x="310" y="548" />
            </Array>
          </mxGeometry>
        </mxCell>
        <mxCell id="dIFlpC5XtX7Rx2cz8LBu-53" value="putget" style="text;html=1;strokeColor=none;fillColor=none;align=center;verticalAlign=middle;whiteSpace=wrap;rounded=0;" vertex="1" parent="1">
          <mxGeometry x="-10" y="60" width="60" height="20" as="geometry" />
        </mxCell>
        <mxCell id="dIFlpC5XtX7Rx2cz8LBu-54" value="incGet" style="text;html=1;strokeColor=none;fillColor=none;align=center;verticalAlign=middle;whiteSpace=wrap;rounded=0;" vertex="1" parent="1">
          <mxGeometry x="-10" y="110" width="60" height="20" as="geometry" />
        </mxCell>
        <mxCell id="dIFlpC5XtX7Rx2cz8LBu-55" value="CLK" style="text;html=1;strokeColor=none;fillColor=none;align=center;verticalAlign=middle;whiteSpace=wrap;rounded=0;" vertex="1" parent="1">
          <mxGeometry x="-5" y="140" width="50" height="20" as="geometry" />
        </mxCell>
        <mxCell id="dIFlpC5XtX7Rx2cz8LBu-56" value="Reset" style="text;html=1;strokeColor=none;fillColor=none;align=center;verticalAlign=middle;whiteSpace=wrap;rounded=0;" vertex="1" parent="1">
          <mxGeometry y="250" width="45" height="20" as="geometry" />
        </mxCell>
        <mxCell id="dIFlpC5XtX7Rx2cz8LBu-57" value="incPut" style="text;html=1;strokeColor=none;fillColor=none;align=center;verticalAlign=middle;whiteSpace=wrap;rounded=0;" vertex="1" parent="1">
          <mxGeometry x="-5" y="330" width="50" height="20" as="geometry" />
        </mxCell>
        <mxCell id="dIFlpC5XtX7Rx2cz8LBu-58" value="A[2..0]" style="text;html=1;strokeColor=none;fillColor=none;align=center;verticalAlign=middle;whiteSpace=wrap;rounded=0;" vertex="1" parent="1">
          <mxGeometry x="820" y="210" width="50" height="20" as="geometry" />
        </mxCell>
        <mxCell id="dIFlpC5XtX7Rx2cz8LBu-59" value="empty" style="text;html=1;strokeColor=none;fillColor=none;align=center;verticalAlign=middle;whiteSpace=wrap;rounded=0;" vertex="1" parent="1">
          <mxGeometry x="825" y="565" width="40" height="20" as="geometry" />
        </mxCell>
        <mxCell id="dIFlpC5XtX7Rx2cz8LBu-60" value="full" style="text;html=1;strokeColor=none;fillColor=none;align=center;verticalAlign=middle;whiteSpace=wrap;rounded=0;" vertex="1" parent="1">
          <mxGeometry x="830" y="635" width="30" height="20" as="geometry" />
        </mxCell>
        <mxCell id="dIFlpC5XtX7Rx2cz8LBu-62" value="" style="endArrow=none;html=1;rounded=0;entryX=0;entryY=0.25;entryDx=0;entryDy=0;" edge="1" parent="1">
          <mxGeometry width="50" height="50" relative="1" as="geometry">
            <mxPoint x="50" y="100" as="sourcePoint" />
            <mxPoint x="140" y="100" as="targetPoint" />
            <Array as="points" />
          </mxGeometry>
        </mxCell>
        <mxCell id="dIFlpC5XtX7Rx2cz8LBu-63" value="" style="endArrow=none;html=1;rounded=0;entryX=0;entryY=0.25;entryDx=0;entryDy=0;" edge="1" parent="1">
          <mxGeometry width="50" height="50" relative="1" as="geometry">
            <mxPoint x="50" y="320" as="sourcePoint" />
            <mxPoint x="140" y="320" as="targetPoint" />
            <Array as="points" />
          </mxGeometry>
        </mxCell>
        <mxCell id="dIFlpC5XtX7Rx2cz8LBu-64" value="A[3..0]" style="text;html=1;strokeColor=none;fillColor=none;align=center;verticalAlign=middle;whiteSpace=wrap;rounded=0;" vertex="1" parent="1">
          <mxGeometry x="2.5" y="90" width="40" height="20" as="geometry" />
        </mxCell>
        <mxCell id="dIFlpC5XtX7Rx2cz8LBu-65" value="B[3..0]" style="text;html=1;strokeColor=none;fillColor=none;align=center;verticalAlign=middle;whiteSpace=wrap;rounded=0;" vertex="1" parent="1">
          <mxGeometry x="2.5" y="310" width="40" height="20" as="geometry" />
        </mxCell>
        <mxCell id="dIFlpC5XtX7Rx2cz8LBu-66" value="" style="endArrow=none;html=1;rounded=0;entryX=0.912;entryY=0.237;entryDx=0;entryDy=0;entryPerimeter=0;" edge="1" parent="1">
          <mxGeometry width="50" height="50" relative="1" as="geometry">
            <mxPoint x="310" y="540" as="sourcePoint" />
            <mxPoint x="400" y="630" as="targetPoint" />
            <Array as="points">
              <mxPoint x="310" y="630" />
            </Array>
          </mxGeometry>
        </mxCell>
      </root>
    </mxGraphModel>
  </diagram>
</mxfile>
